<svg width="128" height="128" viewBox="0 0 128 128" fill="none" xmlns="http://www.w3.org/2000/svg">
<path fill-rule="evenodd" clip-rule="evenodd" d="M49.6273 9.28499C56.318 -3.17014 73.8234 -3.07492 80.3846 9.45228L86.1607 20.4805L99.2913 19.0642C112.515 17.638 122.4 31.2398 117.273 43.8056L112.432 55.6691L122.812 65.4834C131.91 74.0853 128.521 89.5478 116.706 93.3405L103.142 97.6947L102.416 112.16C101.782 124.802 88.0549 132.03 77.6488 125.2L64.1198 116.322L50.1826 125.401C39.813 132.157 26.1749 125.004 25.4657 112.437L24.6305 97.6376L11.3805 93.4681C-0.66899 89.6764 -3.98463 73.8148 5.49284 65.3021L15.7753 56.0664L10.862 43.3939C6.0127 30.8864 15.846 17.5696 28.9161 18.944L43.6086 20.4892L49.6273 9.28499ZM39.9433 27.3122L28.2011 26.0774C20.359 25.2527 14.459 33.2428 17.3686 40.7473L21.3624 51.0481L25.6923 47.159C30.2815 43.0369 34.1339 38.1268 37.0764 32.6492L39.9433 27.3122ZM24.105 58.1221L30.3081 52.5505C35.5093 47.8788 39.8753 42.314 43.2101 36.106L47.5067 28.1076L58.9663 29.3127C63.059 29.7431 67.1842 29.7376 71.2758 29.2963L82.2154 28.1165L86.5584 36.4087C89.6881 42.3842 93.7694 47.7829 98.6341 52.3823L104.083 57.5343L101.307 64.3381C98.6651 70.8128 97.1347 77.7062 96.7831 84.7144L96.4004 92.3442L87.1069 95.3275C82.1256 96.9266 77.3714 99.19 72.9666 102.06L64.1336 107.814L55.6224 102.229C51.0766 99.2452 46.1555 96.9095 40.9948 95.2855L31.3389 92.247L30.872 83.9739C30.5046 77.4635 29.1195 71.0558 26.7697 64.995L24.105 58.1221ZM18.5179 63.1404L10.1087 70.6936C4.75185 75.5051 6.62589 84.4704 13.4365 86.6135L24.1995 90.0004L23.8827 84.3877C23.5586 78.6433 22.3365 72.9894 20.2631 67.6416L18.5179 63.1404ZM31.7699 99.8842L32.4549 112.023C32.8558 119.126 40.5643 123.169 46.4254 119.351L57.6213 112.057L51.8455 108.266C47.8345 105.634 43.4924 103.573 38.9388 102.14L31.7699 99.8842ZM70.6321 112.079L81.4257 119.163C87.3074 123.023 95.0663 118.937 95.4248 111.792L96.0172 99.9819L89.2006 102.17C84.8054 103.581 80.6105 105.578 76.7239 108.11L70.6321 112.079ZM103.525 90.057L114.612 86.4979C121.29 84.3541 123.206 75.6145 118.064 70.7525L109.559 62.7112L107.766 67.1033C105.435 72.8163 104.085 78.8987 103.775 85.0823L103.525 90.057ZM106.957 50.4923L110.813 41.0405C113.89 33.501 107.958 25.3399 100.024 26.1956L89.7352 27.3054L92.7277 33.0188C95.4892 38.2913 99.0903 43.0548 103.383 47.1132L106.957 50.4923ZM78.6408 21.2915L70.5427 22.165C66.9324 22.5543 63.2925 22.5592 59.6814 22.1794L51.172 21.2845L55.761 12.7418C59.7754 5.26873 70.2787 5.32586 74.2154 12.8422L78.6408 21.2915Z" fill="url(#paint0_linear_1_10)"/>
<path fill-rule="evenodd" clip-rule="evenodd" d="M49.6273 9.28499C56.318 -3.17014 73.8234 -3.07492 80.3846 9.45228L86.1607 20.4805L99.2913 19.0642C112.515 17.638 122.4 31.2398 117.273 43.8056L112.432 55.6691L122.812 65.4834C131.91 74.0853 128.521 89.5478 116.706 93.3405L103.142 97.6947L102.416 112.16C101.782 124.802 88.0549 132.03 77.6488 125.2L64.1198 116.322L50.1826 125.401C39.813 132.157 26.1749 125.004 25.4657 112.437L24.6305 97.6376L11.3805 93.4681C-0.66899 89.6764 -3.98463 73.8148 5.49284 65.3021L15.7753 56.0664L10.862 43.3939C6.0127 30.8864 15.846 17.5696 28.9161 18.944L43.6086 20.4892L49.6273 9.28499ZM39.9433 27.3122L28.2011 26.0774C20.359 25.2527 14.459 33.2428 17.3686 40.7473L21.3624 51.0481L25.6923 47.159C30.2815 43.0369 34.1339 38.1268 37.0764 32.6492L39.9433 27.3122ZM24.105 58.1221L30.3081 52.5505C35.5093 47.8788 39.8753 42.314 43.2101 36.106L47.5067 28.1076L58.9663 29.3127C63.059 29.7431 67.1842 29.7376 71.2758 29.2963L82.2154 28.1165L86.5584 36.4087C89.6881 42.3842 93.7694 47.7829 98.6341 52.3823L104.083 57.5343L101.307 64.3381C98.6651 70.8128 97.1347 77.7062 96.7831 84.7144L96.4004 92.3442L87.1069 95.3275C82.1256 96.9266 77.3714 99.19 72.9666 102.06L64.1336 107.814L55.6224 102.229C51.0766 99.2452 46.1555 96.9095 40.9948 95.2855L31.3389 92.247L30.872 83.9739C30.5046 77.4635 29.1195 71.0558 26.7697 64.995L24.105 58.1221ZM18.5179 63.1404L10.1087 70.6936C4.75185 75.5051 6.62589 84.4704 13.4365 86.6135L24.1995 90.0004L23.8827 84.3877C23.5586 78.6433 22.3365 72.9894 20.2631 67.6416L18.5179 63.1404ZM31.7699 99.8842L32.4549 112.023C32.8558 119.126 40.5643 123.169 46.4254 119.351L57.6213 112.057L51.8455 108.266C47.8345 105.634 43.4924 103.573 38.9388 102.14L31.7699 99.8842ZM70.6321 112.079L81.4257 119.163C87.3074 123.023 95.0663 118.937 95.4248 111.792L96.0172 99.9819L89.2006 102.17C84.8054 103.581 80.6105 105.578 76.7239 108.11L70.6321 112.079ZM103.525 90.057L114.612 86.4979C121.29 84.3541 123.206 75.6145 118.064 70.7525L109.559 62.7112L107.766 67.1033C105.435 72.8163 104.085 78.8987 103.775 85.0823L103.525 90.057ZM106.957 50.4923L110.813 41.0405C113.89 33.501 107.958 25.3399 100.024 26.1956L89.7352 27.3054L92.7277 33.0188C95.4892 38.2913 99.0903 43.0548 103.383 47.1132L106.957 50.4923ZM78.6408 21.2915L70.5427 22.165C66.9324 22.5543 63.2925 22.5592 59.6814 22.1794L51.172 21.2845L55.761 12.7418C59.7754 5.26873 70.2787 5.32586 74.2154 12.8422L78.6408 21.2915Z" fill="url(#paint1_linear_1_10)"/>
<path d="M67.304 90.64C64.0613 90.64 61.032 90.064 58.216 88.912C55.4 87.7173 52.9253 86.0747 50.792 83.984C48.6587 81.8933 46.9947 79.4613 45.8 76.688C44.648 73.872 44.072 70.8427 44.072 67.6C44.072 64.4 44.648 61.4133 45.8 58.64C46.9947 55.8667 48.6373 53.456 50.728 51.408C52.8613 49.3173 55.336 47.696 58.152 46.544C60.968 45.392 63.9973 44.816 67.24 44.816C69.5013 44.816 71.6987 45.136 73.832 45.776C76.008 46.416 77.9707 47.312 79.72 48.464C81.4693 49.616 82.8987 50.9387 84.008 52.432L79.528 57.104C77.608 55.2693 75.6027 53.8827 73.512 52.944C71.464 52.0053 69.3733 51.536 67.24 51.536C64.936 51.536 62.8027 51.9413 60.84 52.752C58.92 53.5627 57.2133 54.6933 55.72 56.144C54.2693 57.5947 53.1387 59.3013 52.328 61.264C51.5173 63.184 51.112 65.296 51.112 67.6C51.112 69.8187 51.5387 71.9307 52.392 73.936C53.2453 75.8987 54.4187 77.6267 55.912 79.12C57.448 80.6133 59.1973 81.7867 61.16 82.64C63.1653 83.4933 65.2773 83.92 67.496 83.92C69.16 83.92 70.7387 83.6853 72.232 83.216C73.7253 82.704 75.048 82 76.2 81.104C77.352 80.208 78.248 79.184 78.888 78.032C79.528 76.8373 79.848 75.5787 79.848 74.256V72.976L80.808 73.872H67.112V67.024H86.952C87.0373 67.4933 87.1013 67.9627 87.144 68.432C87.1867 68.8587 87.208 69.2853 87.208 69.712C87.2507 70.096 87.272 70.48 87.272 70.864C87.272 73.808 86.76 76.496 85.736 78.928C84.712 81.3173 83.2827 83.3867 81.448 85.136C79.656 86.8853 77.544 88.2507 75.112 89.232C72.7227 90.1707 70.12 90.64 67.304 90.64Z" fill="url(#paint2_linear_1_10)"/>
<path d="M67.304 90.64C64.0613 90.64 61.032 90.064 58.216 88.912C55.4 87.7173 52.9253 86.0747 50.792 83.984C48.6587 81.8933 46.9947 79.4613 45.8 76.688C44.648 73.872 44.072 70.8427 44.072 67.6C44.072 64.4 44.648 61.4133 45.8 58.64C46.9947 55.8667 48.6373 53.456 50.728 51.408C52.8613 49.3173 55.336 47.696 58.152 46.544C60.968 45.392 63.9973 44.816 67.24 44.816C69.5013 44.816 71.6987 45.136 73.832 45.776C76.008 46.416 77.9707 47.312 79.72 48.464C81.4693 49.616 82.8987 50.9387 84.008 52.432L79.528 57.104C77.608 55.2693 75.6027 53.8827 73.512 52.944C71.464 52.0053 69.3733 51.536 67.24 51.536C64.936 51.536 62.8027 51.9413 60.84 52.752C58.92 53.5627 57.2133 54.6933 55.72 56.144C54.2693 57.5947 53.1387 59.3013 52.328 61.264C51.5173 63.184 51.112 65.296 51.112 67.6C51.112 69.8187 51.5387 71.9307 52.392 73.936C53.2453 75.8987 54.4187 77.6267 55.912 79.12C57.448 80.6133 59.1973 81.7867 61.16 82.64C63.1653 83.4933 65.2773 83.92 67.496 83.92C69.16 83.92 70.7387 83.6853 72.232 83.216C73.7253 82.704 75.048 82 76.2 81.104C77.352 80.208 78.248 79.184 78.888 78.032C79.528 76.8373 79.848 75.5787 79.848 74.256V72.976L80.808 73.872H67.112V67.024H86.952C87.0373 67.4933 87.1013 67.9627 87.144 68.432C87.1867 68.8587 87.208 69.2853 87.208 69.712C87.2507 70.096 87.272 70.48 87.272 70.864C87.272 73.808 86.76 76.496 85.736 78.928C84.712 81.3173 83.2827 83.3867 81.448 85.136C79.656 86.8853 77.544 88.2507 75.112 89.232C72.7227 90.1707 70.12 90.64 67.304 90.64Z" fill="url(#paint3_linear_1_10)" fill-opacity="0.2"/>
<defs>
<linearGradient id="paint0_linear_1_10" x1="98.1333" y1="10.9091" x2="34.4759" y2="123.882" gradientUnits="userSpaceOnUse">
<stop stop-color="#FF1080"/>
<stop offset="0.963543" stop-color="#42C4FF"/>
</linearGradient>
<linearGradient id="paint1_linear_1_10" x1="27.7333" y1="16" x2="129.607" y2="90.5307" gradientUnits="userSpaceOnUse">
<stop stop-color="#FF9124"/>
<stop offset="0.2" stop-color="#FF9798" stop-opacity="0.519085"/>
<stop offset="0.4" stop-color="#EE988B" stop-opacity="0.2"/>
<stop offset="0.6" stop-color="#ED90A9" stop-opacity="0"/>
<stop offset="0.8" stop-color="#EC88C5" stop-opacity="0.2"/>
<stop offset="1" stop-color="#EA7AFA"/>
</linearGradient>
<linearGradient id="paint2_linear_1_10" x1="65.5" y1="26" x2="65.5" y2="106" gradientUnits="userSpaceOnUse">
<stop stop-color="#FF1080"/>
<stop offset="0.96" stop-color="#42C4FF"/>
</linearGradient>
<linearGradient id="paint3_linear_1_10" x1="65.5" y1="26" x2="65.5" y2="106" gradientUnits="userSpaceOnUse">
<stop stop-color="#FF9124"/>
<stop offset="0.2" stop-color="#FF9798" stop-opacity="0.52"/>
<stop offset="0.4" stop-color="#EE988B" stop-opacity="0.2"/>
<stop offset="0.6" stop-color="#ED90A9" stop-opacity="0"/>
<stop offset="1" stop-color="#EA7AFA"/>
</linearGradient>
</defs>
</svg>
